<?xml version="1.0" standalone="no"?><!DOCTYPE svg PUBLIC "-//W3C//DTD SVG 1.1//EN" "http://www.w3.org/Graphics/SVG/1.1/DTD/svg11.dtd"><svg class="icon" width="200px" height="132.90px" viewBox="0 0 1541 1024" version="1.1" xmlns="http://www.w3.org/2000/svg"><path d="M548.346821 713.572254l599.6763-69.919075A61.132948 61.132948 0 0 0 1208.971098 582.65896V374.566474c0-29.364162-16.739884-60.947977-53.50289-60.947977H429.040462l119.352602 400.184971z" fill="#ffd4b2" /><path d="M547.699422 714.820809l-120.231214-402.589595h728.046243c37.549133 0 54.65896 32.369942 54.658959 62.104046v208.092486a62.289017 62.289017 0 0 1-61.826589 62.104046zM430.566474 314.543353l118.612717 397.687861 598.705202-69.82659a60.115607 60.115607 0 0 0 59.745665-59.83815v-208.092486c0-28.809249-16.369942-59.791908-52.346821-59.791907z" fill="#F9CFCF" /><path d="M26.867052 638.65896a9.572254 9.572254 0 0 1-7.398844-3.144509 10.219653 10.219653 0 0 1 0-14.751445l13.872832-13.872833a10.450867 10.450867 0 1 1 14.751446 14.751445l-13.872833 13.872833a11.375723 11.375723 0 0 1-7.398844 3.144509zM93.364162 639.722543a9.572254 9.572254 0 0 1-7.398844-3.144508l-13.872832-13.872833a10.450867 10.450867 0 1 1 14.751445-14.751445l13.872832 13.872833a10.219653 10.219653 0 0 1 0 14.751445 9.572254 9.572254 0 0 1-7.398844 3.144508zM80.647399 585.988439a9.572254 9.572254 0 0 1-7.398844-3.144508 10.219653 10.219653 0 0 1 0-14.751445l13.872832-13.872833a10.450867 10.450867 0 0 1 14.751445 14.751445l-13.872832 13.872833a9.572254 9.572254 0 0 1-7.352601 3.144508zM40.601156 584.878613a9.572254 9.572254 0 0 1-7.398844-3.144509l-13.872832-13.872832a10.515607 10.515607 0 0 1 15.075144-14.65896l13.872833 13.872833a10.219653 10.219653 0 0 1 0 14.751445 7.861272 7.861272 0 0 1-7.398844 3.144508zM1499.699422 804.115607a42.219653 42.219653 0 1 0 42.219653 42.219653 42.312139 42.312139 0 0 0-42.219653-42.219653z m0 63.306358a21.086705 21.086705 0 1 1 21.086705-21.086705 21.179191 21.179191 0 0 1-21.086705 21.086705zM1389.82659 52.763006h-63.306359a10.543353 10.543353 0 1 1 0-21.086705h63.306359a10.543353 10.543353 0 0 1 0 21.086705z" fill="#A5A5A5" /><path d="M1358.150289 84.393064a9.988439 9.988439 0 0 1-10.450867-10.543353V10.543353a10.543353 10.543353 0 0 1 21.086705 0v63.306358a9.988439 9.988439 0 0 1-10.543352 10.543353zM1528.046243 1024h-276.531792c-8.277457 0-13.872832-4.208092-13.872833-10.543353s5.549133-10.543353 13.872833-10.543352h276.531792c8.277457 0 13.872832 4.208092 13.872832 10.543352s-6.936416 10.543353-13.872832 10.543353zM1210.034682 1024h-20.763006c-8.277457 0-13.872832-4.208092-13.872832-10.543353s5.549133-10.543353 13.872832-10.543352h20.763006c8.277457 0 13.872832 4.208092 13.872832 10.543352s-6.936416 10.543353-13.872832 10.543353zM1129.849711 1024h-87.352601c-8.277457 0-13.872832-4.208092-13.872833-10.543353s5.549133-10.543353 13.872833-10.543352h87.121387c8.277457 0 13.872832 4.208092 13.872832 10.543352s-5.549133 10.543353-13.872832 10.543353zM954.219653 1024H355.421965c-8.277457 0-13.872832-4.208092-13.872832-10.543353s5.549133-10.543353 13.872832-10.543352h598.797688c8.277457 0 13.872832 4.208092 13.872833 10.543352s-6.936416 10.543353-13.872833 10.543353zM283.514451 1024H13.872832c-8.277457 0-13.872832-4.208092-13.872832-10.543353s5.549133-10.543353 13.872832-10.543352H283.514451c8.277457 0 13.872832 4.208092 13.872832 10.543352s-6.936416 10.543353-13.872832 10.543353zM1191.907514 804.115607a8.138728 8.138728 0 0 1-5.549132-2.312139 8.046243 8.046243 0 0 1-2.312139-5.549133v-3.190751a60.763006 60.763006 0 0 0-57.849711-57.710983h-3.144509a7.861272 7.861272 0 0 1-5.595376-2.312139 7.861272 7.861272 0 0 1 5.549133-13.410404h2.774567a76.855491 76.855491 0 0 1 73.942196 74.450867v1.942196a7.861272 7.861272 0 0 1-7.861271 7.861272z" fill="#A5A5A5" /><path d="M1191.907514 805.271676a9.248555 9.248555 0 0 1-6.381502-2.635838 9.248555 9.248555 0 0 1-2.635839-6.381503v-3.098266a59.606936 59.606936 0 0 0-56.647398-56.647398h-3.098266a8.971098 8.971098 0 0 1-6.381503-2.635839 9.248555 9.248555 0 0 1 6.381503-15.398844h2.774566a78.057803 78.057803 0 0 1 75.052023 75.606937v1.988439a9.248555 9.248555 0 0 1-9.248555 9.017341z m-66.17341-84.624277h-2.728324a6.705202 6.705202 0 0 0-4.624277 11.468208 6.705202 6.705202 0 0 0 4.624277 1.988439h3.190752a61.919075 61.919075 0 0 1 58.820809 58.820809v3.190752a6.705202 6.705202 0 0 0 11.421965 4.624277 7.028902 7.028902 0 0 0 1.98844-4.624277v-2.034682a75.699422 75.699422 0 0 0-72.693642-73.433526z" fill="#A5A5A5" /><path d="M1243.468208 784.83237a8.138728 8.138728 0 0 1-5.549133-2.312139 8.046243 8.046243 0 0 1-2.312139-5.549133v-3.32948a60.67052 60.67052 0 0 0-57.757225-57.618497h-3.144509a8.184971 8.184971 0 0 1-5.549133-2.312138 7.861272 7.861272 0 0 1 5.549133-13.456648h2.959538a76.901734 76.901734 0 0 1 73.988439 74.867052v1.895954a8.138728 8.138728 0 0 1-2.312139 5.549133 7.907514 7.907514 0 0 1-5.549132 2.312139z" fill="#A5A5A5" /><path d="M1243.468208 785.895954a9.248555 9.248555 0 0 1-6.381503-2.635838 9.248555 9.248555 0 0 1-2.635838-6.381503v-3.190752a59.560694 59.560694 0 0 0-56.647399-56.554913h-3.098266a9.248555 9.248555 0 0 1-6.381503-2.635838 9.248555 9.248555 0 0 1 6.381503-15.398844h2.959538a78.057803 78.057803 0 0 1 74.959537 75.976879v1.942196a9.248555 9.248555 0 0 1-2.635838 6.33526 9.248555 9.248555 0 0 1-6.520231 2.543353z m-65.942196-84.624278H1174.612717a6.705202 6.705202 0 0 0-4.624278 11.468208 7.075145 7.075145 0 0 0 4.624278 1.942197h3.190751a61.82659 61.82659 0 0 1 58.913295 58.820809v3.375723a6.843931 6.843931 0 0 0 1.942197 4.624277 6.982659 6.982659 0 0 0 4.624277 1.988439 6.751445 6.751445 0 0 0 4.624277-1.988439 7.028902 7.028902 0 0 0 1.942197-4.624277v-1.895954a75.745665 75.745665 0 0 0-72.369942-73.710983z" fill="#A5A5A5" /><path d="M690.404624 566.381503a8.231214 8.231214 0 0 1-7.121387-4.115607l-84.947977-147.144509a8.19422 8.19422 0 1 1 14.196532-8.184971l84.947977 147.144509a8.184971 8.184971 0 0 1-3.005781 11.190751 8.184971 8.184971 0 0 1-4.115606 1.109827z" fill="#A5A5A5" /><path d="M690.404624 567.491329a9.248555 9.248555 0 0 1-8.092485-4.624277L597.364162 415.722543a9.322543 9.322543 0 1 1 16.184971-9.248555l84.947977 147.144509a9.248555 9.248555 0 0 1-3.421965 12.763006 9.248555 9.248555 0 0 1-4.670521 1.109826z m-84.994219-163.560693a7.028902 7.028902 0 0 0-6.104047 10.589595l84.947977 147.144509a7.213873 7.213873 0 0 0 9.618497 2.589595 7.028902 7.028902 0 0 0 2.589596-9.618497l-84.901734-147.144509a7.075145 7.075145 0 0 0-6.150289-3.51445z" fill="#A5A5A5" /><path d="M826.728324 558.242775a8.231214 8.231214 0 0 1-7.121388-4.115607l-84.947976-147.144509a8.203468 8.203468 0 1 1 14.196531-8.231214l84.99422 147.144509a8.184971 8.184971 0 0 1-7.121387 12.300578z" fill="#A5A5A5" /><path d="M826.728324 559.352601a9.248555 9.248555 0 0 1-8.138729-4.624277l-84.947977-147.144509a9.322543 9.322543 0 1 1 16.184972-9.248555l84.947976 147.144509a9.248555 9.248555 0 0 1-8.092485 13.872832z m-84.809249-163.560693a7.075145 7.075145 0 0 0-3.514451 0.971098 7.028902 7.028902 0 0 0-2.589595 9.618497l84.716763 147.236994a7.260116 7.260116 0 0 0 9.618497 2.589595 7.075145 7.075145 0 0 0 2.589595-9.618497L747.791908 399.445087a7.075145 7.075145 0 0 0-5.872833-3.653179z" fill="#A5A5A5" /><path d="M963.052023 550.057803a8.231214 8.231214 0 0 1-7.121387-4.115606l-84.947977-147.144509a8.19422 8.19422 0 1 1 14.196532-8.184971l84.994219 147.144508a8.231214 8.231214 0 0 1-7.121387 12.300578z" fill="#A5A5A5" /><path d="M963.052023 551.213873a9.248555 9.248555 0 0 1-8.138728-4.624278l-84.947977-147.144508a9.248555 9.248555 0 0 1 8.092485-13.872833 9.248555 9.248555 0 0 1 8.092486 4.624278L971.144509 537.34104a9.248555 9.248555 0 0 1-3.421966 12.763006 9.248555 9.248555 0 0 1-4.67052 1.109827z m-84.99422-163.606937a7.075145 7.075145 0 0 0-6.104046 10.589596l84.947977 147.144508a7.213873 7.213873 0 0 0 9.66474 2.589596 7.028902 7.028902 0 0 0 2.589595-9.618497l-84.994219-147.144509a7.075145 7.075145 0 0 0-6.104047-3.560694z" fill="#A5A5A5" /><path d="M1102.33526 268.115607H371.098266l-45.364162-152.647399H176a7.953757 7.953757 0 0 0-5.317919 2.312139 7.861272 7.861272 0 0 0 0 11.144508 8 8 0 0 0 5.317919 2.312139h137.757225l194.219654 651.375723-1.017341 1.66474a83.236994 83.236994 0 1 0 152.601156 55.491329l0.50867-3.699422h315.791908l0.50867 3.699422a83.236994 83.236994 0 0 0 82.265896 71.445087 83.236994 83.236994 0 1 0 0-166.150289 83.236994 83.236994 0 0 0-82.265896 71.445087l-0.50867 3.699421h-315.838151l-0.50867-3.699421a83.236994 83.236994 0 0 0-134.473989-52.901735l-4.994219 4.069365-20.393064-68.393064 595.144509-69.364162h0.416185a77.086705 77.086705 0 0 0 76.208092-76.300578V344.924855c0.231214-44.531792-28.947977-76.809249-69.086705-76.809248z m-43.606936 493.040462a67.236994 67.236994 0 1 1-67.098266 67.236995 67.32948 67.32948 0 0 1 67.098266-67.236995z m-528.878613 19.699422a67.00578 67.00578 0 0 1 47.491329-19.699422 67.236994 67.236994 0 1 1 0 134.473989 67.190751 67.190751 0 0 1-47.491329-114.728324z m625.757225-227.653179a61.132948 61.132948 0 0 1-60.67052 60.947977l-599.768786 69.965318L375.815029 283.930636h726.520231c36.763006 0 53.50289 31.583815 53.50289 60.947977z" fill="#A5A5A5" /><path d="M1058.728324 912.647399a84.578035 84.578035 0 0 1-83.236995-72.462428l-0.369942-2.728324h-313.988439l-0.369942 2.728324a84.208092 84.208092 0 1 1-154.682081-56.50867l0.739884-1.202313L312.924855 132.439306H176a9.248555 9.248555 0 0 1-6.104046-2.635838 9.248555 9.248555 0 0 1 0-12.763006 9.248555 9.248555 0 0 1 6.057803-2.728323h150.473989l45.549133 152.601156h730.358381c40.83237 0 70.473988 32.786127 70.473989 77.965318v208.693641a78.242775 78.242775 0 0 1-77.271677 77.595376l-0.416185-1.156069v1.156069l-593.757225 69.364162 19.514451 65.433526 3.653179-2.959538a84.16185 84.16185 0 0 1 136.323699 53.641619l0.369943 2.728324h313.803468l0.369942-2.728324a84.208092 84.208092 0 0 1 167.630058 11.791907 84.346821 84.346821 0 0 1-84.254336 84.208093z m-399.583815-77.50289h317.826589l0.647399 4.624277a82.219653 82.219653 0 0 0 81.109827 70.473989 81.919075 81.919075 0 1 0 0-163.838151 82.219653 82.219653 0 0 0-80.971099 70.520231l-0.647398 4.624278h-317.965318l-0.647399-4.624278a81.849711 81.849711 0 0 0-132.578035-52.208092l-6.33526 5.132948-21.271676-71.352601h1.387283l595.468208-69.364162a75.976879 75.976879 0 0 0 75.098266-75.514451V344.924855c0-43.83815-28.67052-75.653179-68.16185-75.653179H370.219653l-45.50289-152.601156H176.046243a6.797688 6.797688 0 0 0-4.624278 1.942197 6.705202 6.705202 0 0 0 0 9.479769 6.797688 6.797688 0 0 0 4.624278 1.942196h138.728323l0.231214 0.83237 194.219654 652.023121-1.341041 2.080925a81.895954 81.895954 0 1 0 150.797688 54.890174z m399.583815 61.641618a68.393064 68.393064 0 1 1 68.393063-68.393063 68.439306 68.439306 0 0 1-68.393063 68.393063z m0-134.473988a66.080925 66.080925 0 1 0 66.080925 66.080925 66.127168 66.127168 0 0 0-66.080925-66.080925z m-481.387284 134.473988a68.393064 68.393064 0 1 1 68.393064-68.393063 67.884393 67.884393 0 0 1-68.393064 68.393063z m0-134.473988a66.080925 66.080925 0 1 0 66.080925 66.080925 65.618497 65.618497 0 0 0-66.080925-66.080925z m-83.236994-76.947977l-120.231214-402.589596h728.462428c37.549133 0 54.65896 32.369942 54.65896 62.104047v208.092485a62.289017 62.289017 0 0 1-61.82659 62.104047zM377.387283 285.086705l118.612717 397.687861 598.705202-69.826589a60.115607 60.115607 0 0 0 59.745665-59.83815v-208.092486c0-28.809249-16.369942-59.791908-52.346821-59.791907z" fill="#A5A5A5" /></svg>